<svg width="10" height="10" viewBox="0 0 10 10" fill="none" xmlns="http://www.w3.org/2000/svg">
<path d="M6.83879 9.30946C3.25822 9.30946 0.345169 6.39641 0.345169 2.81584C0.345859 2.17542 0.579666 1.55716 1.00292 1.07654C1.42616 0.595921 2.00991 0.285823 2.6451 0.204171C2.83373 0.181381 3.02468 0.220239 3.18941 0.31494C3.35414 0.409641 3.4838 0.5551 3.55903 0.729584L4.4405 2.7864C4.49767 2.91938 4.52099 3.06446 4.50836 3.20866C4.49574 3.35286 4.44756 3.49169 4.36814 3.61271L3.69395 4.64291C3.99419 5.20792 4.45768 5.66937 5.024 5.96713L6.03744 5.29136C6.15879 5.21013 6.29853 5.16058 6.44394 5.14721C6.58935 5.13385 6.73578 5.15709 6.8699 5.21484L8.925 6.0956C9.09954 6.17075 9.24506 6.3004 9.33977 6.46515C9.43449 6.62989 9.47332 6.82088 9.45046 7.00953C9.36881 7.64472 9.05871 8.22847 8.57809 8.65171C8.09747 9.07496 7.47921 9.30877 6.83879 9.30946ZM2.64549 1.27119C2.29248 1.34757 1.97624 1.54245 1.74933 1.82346C1.52242 2.10446 1.39851 2.45466 1.39819 2.81584C1.39981 4.25828 1.97354 5.64117 2.9935 6.66113C4.01346 7.68109 5.39635 8.25481 6.83879 8.25644C7.19997 8.25611 7.55016 8.13219 7.83116 7.90528C8.11216 7.67837 8.30705 7.36214 8.38344 7.00914L6.54254 6.22021L5.52322 6.89989C5.39685 6.98424 5.25073 7.03432 5.09919 7.04521C4.94764 7.0561 4.79587 7.02743 4.65873 6.96201C3.80687 6.54921 3.11768 5.86316 2.70099 5.01318C2.63528 4.87687 2.60591 4.72588 2.61575 4.57487C2.62559 4.42386 2.6743 4.27796 2.75716 4.15133L3.43561 3.11472L2.64549 1.27119Z" fill="#939393"/>
</svg>
